# xmcd
#
# Track frame offsets: 
#        150
#        49179
#        68704
#        70751
#        86785
#        89746
#        114454
#        120415
#        158002
#        163425
#        181222
#        199356
#        201214
#        224665
#        228133
#        261593
#        264711
#        283696
#        285970
#        313962
#        318954
#        322125
#        343007
#
# Disc length: 4710 seconds
#
# Revision: 3
# Processed by: cddbd v1.5.2PL0 Copyright (c) Steve Scherf et al.
# Submitted via: ExactAudioCopy v0.95b4
#
DISCID=6f126417
DTITLE=David Gilmour - 22 Jun 2001, Gilmour's Meltdown Gig, Royal Fest
DTITLE=ival Hall, London, England
DYEAR=2001
DGENRE=Psychedelic Rock
TTITLE0=Shine On You Crazy Diamond (Pts 1-5)
TTITLE1=Terrapin
TTITLE2=(Tuning And Stuff)
TTITLE3=Fat Old Sun
TTITLE4=(More Tuning And Stuff)
TTITLE5=Coming Back To Life
TTITLE6=(Tuning And Silence)
TTITLE7=High Hopes
TTITLE8=(Talkin')
TTITLE9=Je Croix Entendre Encore
TTITLE10=Smile
TTITLE11=("When's The Next Floyd Album?")
TTITLE12=Wish You Were Here
TTITLE13=(Tuning And Stuff)
TTITLE14=Comfortably Numb
TTITLE15=(More Tuning)
TTITLE16=The Dimming Of The Day
TTITLE17=("Bring On Waters!")
TTITLE18=Shine On You Crazy Diamond (Pts. 6, 7 and A Bit From 9)
TTITLE19=Introductions
TTITLE20=("We'd Still Be Here At Turf Out Time!")
TTITLE21=A Great Day For Freedom
TTITLE22=Hushaby Mountain
EXTD=
EXTT0=
EXTT1=
EXTT2=
EXTT3=
EXTT4=
EXTT5=
EXTT6=
EXTT7=
EXTT8=
EXTT9=
EXTT10=
EXTT11=
EXTT12=
EXTT13=
EXTT14=
EXTT15=
EXTT16=
EXTT17=
EXTT18=
EXTT19=
EXTT20=
EXTT21=
EXTT22=
PLAYORDER=
